
<svg xmlns="http://www.w3.org/2000/svg"
     width="1600"
     height="500"
     viewBox="0 0 1600 500">

<defs>

<linearGradient id="bg" x1="0%" y1="0%" x2="100%" y2="100%">
<stop offset="0%" stop-color="#050816"/>
<stop offset="50%" stop-color="#7B2FF7"/>
<stop offset="100%" stop-color="#00F5FF"/>
</linearGradient>

<filter id="glow">
<feGaussianBlur stdDeviation="6" result="blur"/>
<feMerge>
<feMergeNode in="blur"/>
<feMergeNode in="SourceGraphic"/>
</feMerge>
</filter>

<style>
.title{
fill:white;
font-size:70px;
font-family:Segoe UI;
font-weight:bold;
}

.subtitle{
fill:#00F5FF;
font-size:30px;
font-family:Segoe UI;
}

.small{
fill:white;
font-size:22px;
font-family:Consolas;
}
</style>

</defs>

<rect
width="100%"
height="100%"
fill="url(#bg)"
/>

<!-- Background Grid -->

<g opacity=".12">

<line x1="0" y1="0"
x2="0" y2="500"
stroke="white"/><line x1="40" y1="0"
x2="40" y2="500"
stroke="white"/><line x1="80" y1="0"
x2="80" y2="500"
stroke="white"/><line x1="120" y1="0"
x2="120" y2="500"
stroke="white"/><line x1="160" y1="0"
x2="160" y2="500"
stroke="white"/><line x1="200" y1="0"
x2="200" y2="500"
stroke="white"/><line x1="240" y1="0"
x2="240" y2="500"
stroke="white"/><line x1="280" y1="0"
x2="280" y2="500"
stroke="white"/><line x1="320" y1="0"
x2="320" y2="500"
stroke="white"/><line x1="360" y1="0"
x2="360" y2="500"
stroke="white"/><line x1="400" y1="0"
x2="400" y2="500"
stroke="white"/><line x1="440" y1="0"
x2="440" y2="500"
stroke="white"/><line x1="480" y1="0"
x2="480" y2="500"
stroke="white"/><line x1="520" y1="0"
x2="520" y2="500"
stroke="white"/><line x1="560" y1="0"
x2="560" y2="500"
stroke="white"/><line x1="600" y1="0"
x2="600" y2="500"
stroke="white"/><line x1="640" y1="0"
x2="640" y2="500"
stroke="white"/><line x1="680" y1="0"
x2="680" y2="500"
stroke="white"/><line x1="720" y1="0"
x2="720" y2="500"
stroke="white"/><line x1="760" y1="0"
x2="760" y2="500"
stroke="white"/><line x1="800" y1="0"
x2="800" y2="500"
stroke="white"/><line x1="840" y1="0"
x2="840" y2="500"
stroke="white"/><line x1="880" y1="0"
x2="880" y2="500"
stroke="white"/><line x1="920" y1="0"
x2="920" y2="500"
stroke="white"/><line x1="960" y1="0"
x2="960" y2="500"
stroke="white"/><line x1="1000" y1="0"
x2="1000" y2="500"
stroke="white"/><line x1="1040" y1="0"
x2="1040" y2="500"
stroke="white"/><line x1="1080" y1="0"
x2="1080" y2="500"
stroke="white"/><line x1="1120" y1="0"
x2="1120" y2="500"
stroke="white"/><line x1="1160" y1="0"
x2="1160" y2="500"
stroke="white"/><line x1="1200" y1="0"
x2="1200" y2="500"
stroke="white"/><line x1="1240" y1="0"
x2="1240" y2="500"
stroke="white"/><line x1="1280" y1="0"
x2="1280" y2="500"
stroke="white"/><line x1="1320" y1="0"
x2="1320" y2="500"
stroke="white"/><line x1="1360" y1="0"
x2="1360" y2="500"
stroke="white"/><line x1="1400" y1="0"
x2="1400" y2="500"
stroke="white"/><line x1="1440" y1="0"
x2="1440" y2="500"
stroke="white"/><line x1="1480" y1="0"
x2="1480" y2="500"
stroke="white"/><line x1="1520" y1="0"
x2="1520" y2="500"
stroke="white"/><line x1="1560" y1="0"
x2="1560" y2="500"
stroke="white"/>

<line x1="0" y1="0"
x2="1600" y2="0"
stroke="white"/><line x1="0" y1="40"
x2="1600" y2="40"
stroke="white"/><line x1="0" y1="80"
x2="1600" y2="80"
stroke="white"/><line x1="0" y1="120"
x2="1600" y2="120"
stroke="white"/><line x1="0" y1="160"
x2="1600" y2="160"
stroke="white"/><line x1="0" y1="200"
x2="1600" y2="200"
stroke="white"/><line x1="0" y1="240"
x2="1600" y2="240"
stroke="white"/><line x1="0" y1="280"
x2="1600" y2="280"
stroke="white"/><line x1="0" y1="320"
x2="1600" y2="320"
stroke="white"/><line x1="0" y1="360"
x2="1600" y2="360"
stroke="white"/><line x1="0" y1="400"
x2="1600" y2="400"
stroke="white"/><line x1="0" y1="440"
x2="1600" y2="440"
stroke="white"/><line x1="0" y1="480"
x2="1600" y2="480"
stroke="white"/><line x1="0" y1="520"
x2="1600" y2="520"
stroke="white"/><line x1="0" y1="560"
x2="1600" y2="560"
stroke="white"/>

</g>

<!-- Animated Circles -->

<circle cx="180" cy="120" r="12" fill="#00F5FF">
<animate attributeName="cy"
values="120;80;120"
dur="4s"
repeatCount="indefinite"/>
</circle>

<circle cx="1450" cy="360" r="10" fill="#FF0080">
<animate attributeName="cy"
values="360;320;360"
dur="5s"
repeatCount="indefinite"/>
</circle>

<circle cx="1350" cy="120" r="8" fill="#7B2FF7">
<animate attributeName="cy"
values="120;160;120"
dur="6s"
repeatCount="indefinite"/>
</circle>

<!-- Title -->

<text
x="800"
y="170"
text-anchor="middle"
class="title"
filter="url(#glow)">

Jagadeesh

</text>

<!-- Subtitle -->

<text
x="800"
y="230"
text-anchor="middle"
class="subtitle">

Artificial Intelligence & Machine Learning Engineer

</text>

<!-- Tech -->

<text
x="800"
y="280"
text-anchor="middle"
class="small">

Python • Java • Machine Learning • Flask • AI

</text>

<!-- Status -->

<text
x="800"
y="360"
text-anchor="middle"
fill="#00FF88"
font-size="24"
font-family="Consolas">

● Building Intelligent Applications

<animate
attributeName="opacity"
values="1;.3;1"
dur="2s"
repeatCount="indefinite"/>

</text>

</svg>
